<mxfile host="app.diagrams.net" modified="2024-07-16T17:47:08.299Z" agent="Mozilla/5.0 (X11; Ubuntu; Linux x86_64; rv:128.0) Gecko/20100101 Firefox/128.0" etag="bV3qYFijahYzrlU0Exwq" version="24.6.5" type="device">
  <diagram name="Page-1" id="79sttr75bbqQJlArOYBK">
    <mxGraphModel dx="2217" dy="973" grid="1" gridSize="10" guides="1" tooltips="1" connect="1" arrows="1" fold="1" page="1" pageScale="1" pageWidth="850" pageHeight="1100" math="0" shadow="0">
      <root>
        <mxCell id="0" />
        <mxCell id="1" parent="0" />
        <mxCell id="OsrnES0SKi7QVxMVaG5j-71" value="Active_record_attachments" style="swimlane;fontStyle=1;align=center;verticalAlign=top;childLayout=stackLayout;horizontal=1;startSize=26;horizontalStack=0;resizeParent=1;resizeParentMax=0;resizeLast=0;collapsible=1;marginBottom=0;whiteSpace=wrap;html=1;" vertex="1" parent="1">
          <mxGeometry x="630" y="10" width="190" height="148" as="geometry" />
        </mxCell>
        <mxCell id="OsrnES0SKi7QVxMVaG5j-72" value="&lt;div&gt;+ name: string&lt;br&gt;&lt;/div&gt;&lt;div&gt;+ record_name: string&lt;/div&gt;&lt;div&gt;+ record_id: bigint&lt;/div&gt;&lt;div&gt;+ blob_id: bigint&lt;div&gt;+ created_at: DateTime&lt;/div&gt;&lt;/div&gt;&lt;div&gt;&lt;br&gt;&lt;/div&gt;" style="text;strokeColor=none;fillColor=none;align=left;verticalAlign=top;spacingLeft=4;spacingRight=4;overflow=hidden;rotatable=0;points=[[0,0.5],[1,0.5]];portConstraint=eastwest;whiteSpace=wrap;html=1;" vertex="1" parent="OsrnES0SKi7QVxMVaG5j-71">
          <mxGeometry y="26" width="190" height="74" as="geometry" />
        </mxCell>
        <mxCell id="OsrnES0SKi7QVxMVaG5j-73" value="" style="line;strokeWidth=1;fillColor=none;align=left;verticalAlign=middle;spacingTop=-1;spacingLeft=3;spacingRight=3;rotatable=0;labelPosition=right;points=[];portConstraint=eastwest;strokeColor=inherit;" vertex="1" parent="OsrnES0SKi7QVxMVaG5j-71">
          <mxGeometry y="100" width="190" height="8" as="geometry" />
        </mxCell>
        <mxCell id="OsrnES0SKi7QVxMVaG5j-74" value="&lt;div&gt;&lt;span class=&quot;hljs-type&quot;&gt;+ &lt;/span&gt;blob() :&amp;nbsp; Active_storage_blobs&lt;/div&gt;&lt;div&gt;&lt;br&gt;&lt;/div&gt;&lt;div&gt;&lt;br&gt;&lt;br&gt;&lt;/div&gt;" style="text;strokeColor=none;fillColor=none;align=left;verticalAlign=top;spacingLeft=4;spacingRight=4;overflow=hidden;rotatable=0;points=[[0,0.5],[1,0.5]];portConstraint=eastwest;whiteSpace=wrap;html=1;" vertex="1" parent="OsrnES0SKi7QVxMVaG5j-71">
          <mxGeometry y="108" width="190" height="40" as="geometry" />
        </mxCell>
        <mxCell id="OsrnES0SKi7QVxMVaG5j-76" value="1" style="endArrow=open;html=1;endSize=12;startArrow=diamondThin;startSize=14;startFill=0;edgeStyle=orthogonalEdgeStyle;align=left;verticalAlign=bottom;rounded=0;entryX=-0.01;entryY=1;entryDx=0;entryDy=0;entryPerimeter=0;" edge="1" parent="1">
          <mxGeometry x="-0.9333" relative="1" as="geometry">
            <mxPoint x="662.5" y="260" as="sourcePoint" />
            <mxPoint x="787.5" y="160" as="targetPoint" />
            <Array as="points">
              <mxPoint x="692.5" y="200" />
              <mxPoint x="787.5" y="200" />
            </Array>
            <mxPoint as="offset" />
          </mxGeometry>
        </mxCell>
        <mxCell id="OsrnES0SKi7QVxMVaG5j-77" value="1..*" style="text;html=1;align=center;verticalAlign=middle;resizable=0;points=[];autosize=1;strokeColor=none;fillColor=none;container=0;" vertex="1" parent="1">
          <mxGeometry x="790" y="156" width="40" height="30" as="geometry" />
        </mxCell>
        <mxCell id="OsrnES0SKi7QVxMVaG5j-6" value="User" style="swimlane;fontStyle=1;align=center;verticalAlign=top;childLayout=stackLayout;horizontal=1;startSize=26;horizontalStack=0;resizeParent=1;resizeParentMax=0;resizeLast=0;collapsible=1;marginBottom=0;whiteSpace=wrap;html=1;container=0;" vertex="1" parent="1">
          <mxGeometry x="50" y="30" width="220" height="380" as="geometry">
            <mxRectangle x="260" y="80" width="100" height="30" as="alternateBounds" />
          </mxGeometry>
        </mxCell>
        <mxCell id="OsrnES0SKi7QVxMVaG5j-24" value="" style="endArrow=open;html=1;endSize=12;startArrow=diamondThin;startSize=14;startFill=0;edgeStyle=orthogonalEdgeStyle;rounded=0;exitX=0.5;exitY=1;exitDx=0;exitDy=0;" edge="1" parent="1" source="OsrnES0SKi7QVxMVaG5j-6">
          <mxGeometry y="20" relative="1" as="geometry">
            <mxPoint x="159.5" y="430" as="sourcePoint" />
            <mxPoint x="160" y="500" as="targetPoint" />
            <mxPoint as="offset" />
          </mxGeometry>
        </mxCell>
        <mxCell id="OsrnES0SKi7QVxMVaG5j-25" value="1" style="edgeLabel;resizable=0;html=1;align=left;verticalAlign=top;container=0;" connectable="0" vertex="1" parent="OsrnES0SKi7QVxMVaG5j-24">
          <mxGeometry x="-1" relative="1" as="geometry">
            <mxPoint y="10" as="offset" />
          </mxGeometry>
        </mxCell>
        <mxCell id="OsrnES0SKi7QVxMVaG5j-26" value="0..*" style="edgeLabel;resizable=0;html=1;align=right;verticalAlign=top;container=0;" connectable="0" vertex="1" parent="OsrnES0SKi7QVxMVaG5j-24">
          <mxGeometry x="1" relative="1" as="geometry">
            <mxPoint x="21" y="-30" as="offset" />
          </mxGeometry>
        </mxCell>
        <mxCell id="OsrnES0SKi7QVxMVaG5j-33" value="Post" style="swimlane;fontStyle=1;align=center;verticalAlign=top;childLayout=stackLayout;horizontal=1;startSize=26;horizontalStack=0;resizeParent=1;resizeParentMax=0;resizeLast=0;collapsible=1;marginBottom=0;whiteSpace=wrap;html=1;container=0;" vertex="1" parent="1">
          <mxGeometry x="50" y="510" width="220" height="320" as="geometry">
            <mxRectangle x="50" y="510" width="100" height="30" as="alternateBounds" />
          </mxGeometry>
        </mxCell>
        <mxCell id="OsrnES0SKi7QVxMVaG5j-37" value="Location" style="swimlane;fontStyle=1;align=center;verticalAlign=top;childLayout=stackLayout;horizontal=1;startSize=26;horizontalStack=0;resizeParent=1;resizeParentMax=0;resizeLast=0;collapsible=1;marginBottom=0;whiteSpace=wrap;html=1;container=0;" vertex="1" parent="1">
          <mxGeometry x="370" y="510" width="240" height="230" as="geometry">
            <mxRectangle x="260" y="80" width="100" height="30" as="alternateBounds" />
          </mxGeometry>
        </mxCell>
        <mxCell id="OsrnES0SKi7QVxMVaG5j-44" value="1" style="endArrow=open;html=1;endSize=12;startArrow=diamondThin;startSize=14;startFill=0;edgeStyle=orthogonalEdgeStyle;align=left;verticalAlign=bottom;rounded=0;" edge="1" parent="1">
          <mxGeometry x="-1" y="3" relative="1" as="geometry">
            <mxPoint x="270" y="640" as="sourcePoint" />
            <mxPoint x="370" y="640" as="targetPoint" />
          </mxGeometry>
        </mxCell>
        <mxCell id="OsrnES0SKi7QVxMVaG5j-45" value="1" style="text;html=1;align=center;verticalAlign=middle;resizable=0;points=[];autosize=1;strokeColor=none;fillColor=none;container=0;" vertex="1" parent="1">
          <mxGeometry x="350" y="610" width="30" height="30" as="geometry" />
        </mxCell>
        <mxCell id="OsrnES0SKi7QVxMVaG5j-50" value="Active_storage_blobs" style="swimlane;fontStyle=1;align=center;verticalAlign=top;childLayout=stackLayout;horizontal=1;startSize=26;horizontalStack=0;resizeParent=1;resizeParentMax=0;resizeLast=0;collapsible=1;marginBottom=0;whiteSpace=wrap;html=1;container=0;" vertex="1" parent="1">
          <mxGeometry x="370" y="184" width="290" height="226" as="geometry">
            <mxRectangle x="260" y="80" width="100" height="30" as="alternateBounds" />
          </mxGeometry>
        </mxCell>
        <mxCell id="OsrnES0SKi7QVxMVaG5j-54" value="1" style="endArrow=open;html=1;endSize=12;startArrow=diamondThin;startSize=14;startFill=0;edgeStyle=orthogonalEdgeStyle;align=left;verticalAlign=bottom;rounded=0;" edge="1" parent="1">
          <mxGeometry x="-1" y="3" relative="1" as="geometry">
            <mxPoint x="270" y="260" as="sourcePoint" />
            <mxPoint x="370" y="260" as="targetPoint" />
          </mxGeometry>
        </mxCell>
        <mxCell id="OsrnES0SKi7QVxMVaG5j-55" value="1" style="endArrow=open;html=1;endSize=15;startArrow=diamondThin;startSize=14;startFill=0;edgeStyle=orthogonalEdgeStyle;align=left;verticalAlign=bottom;rounded=0;entryX=0.433;entryY=1.021;entryDx=0;entryDy=0;entryPerimeter=0;exitX=0.379;exitY=0;exitDx=0;exitDy=0;exitPerimeter=0;sourcePerimeterSpacing=0;targetPerimeterSpacing=4;" edge="1" parent="1">
          <mxGeometry x="-0.8198" y="-5" relative="1" as="geometry">
            <mxPoint x="474.96000000000004" y="508.99" as="sourcePoint" />
            <mxPoint x="474.93000000000006" y="409.99800000000005" as="targetPoint" />
            <Array as="points">
              <mxPoint x="474" y="438.99" />
              <mxPoint x="474" y="438.99" />
            </Array>
            <mxPoint as="offset" />
          </mxGeometry>
        </mxCell>
        <mxCell id="OsrnES0SKi7QVxMVaG5j-56" value="0..1" style="text;html=1;align=center;verticalAlign=middle;resizable=0;points=[];autosize=1;strokeColor=none;fillColor=none;container=0;" vertex="1" parent="1">
          <mxGeometry x="470" y="410" width="40" height="30" as="geometry" />
        </mxCell>
        <mxCell id="OsrnES0SKi7QVxMVaG5j-57" value="0.1" style="text;html=1;align=center;verticalAlign=middle;resizable=0;points=[];autosize=1;strokeColor=none;fillColor=none;container=0;" vertex="1" parent="1">
          <mxGeometry x="335" y="230" width="40" height="30" as="geometry" />
        </mxCell>
        <mxCell id="OsrnES0SKi7QVxMVaG5j-58" value="1" style="endArrow=open;html=1;endSize=12;startArrow=diamondThin;startSize=14;startFill=0;edgeStyle=orthogonalEdgeStyle;align=left;verticalAlign=bottom;rounded=0;exitX=1.014;exitY=0.029;exitDx=0;exitDy=0;exitPerimeter=0;entryX=-0.01;entryY=1;entryDx=0;entryDy=0;entryPerimeter=0;" edge="1" parent="1" source="OsrnES0SKi7QVxMVaG5j-33" target="OsrnES0SKi7QVxMVaG5j-53">
          <mxGeometry x="-1" y="-7" relative="1" as="geometry">
            <mxPoint x="260" y="450" as="sourcePoint" />
            <mxPoint x="360" y="450" as="targetPoint" />
            <Array as="points">
              <mxPoint x="273" y="450" />
              <mxPoint x="368" y="450" />
            </Array>
            <mxPoint y="1" as="offset" />
          </mxGeometry>
        </mxCell>
        <mxCell id="OsrnES0SKi7QVxMVaG5j-60" value="0..*" style="text;html=1;align=center;verticalAlign=middle;resizable=0;points=[];autosize=1;strokeColor=none;fillColor=none;container=0;" vertex="1" parent="1">
          <mxGeometry x="365" y="410" width="40" height="30" as="geometry" />
        </mxCell>
        <mxCell id="OsrnES0SKi7QVxMVaG5j-61" value="1" style="endArrow=open;html=1;endSize=15;startArrow=diamondThin;startSize=14;startFill=0;edgeStyle=orthogonalEdgeStyle;align=left;verticalAlign=bottom;rounded=0;sourcePerimeterSpacing=0;targetPerimeterSpacing=4;" edge="1" parent="1">
          <mxGeometry x="-0.8198" y="-5" relative="1" as="geometry">
            <mxPoint x="540" y="184" as="sourcePoint" />
            <mxPoint x="541" y="130" as="targetPoint" />
            <Array as="points">
              <mxPoint x="540" y="172.99" />
              <mxPoint x="540" y="172.99" />
            </Array>
            <mxPoint as="offset" />
          </mxGeometry>
        </mxCell>
        <mxCell id="OsrnES0SKi7QVxMVaG5j-62" value="0..*" style="text;html=1;align=center;verticalAlign=middle;resizable=0;points=[];autosize=1;strokeColor=none;fillColor=none;container=0;" vertex="1" parent="1">
          <mxGeometry x="540" y="128" width="40" height="30" as="geometry" />
        </mxCell>
        <mxCell id="OsrnES0SKi7QVxMVaG5j-7" value="&lt;div&gt;+ email: string&lt;/div&gt;&lt;div&gt;+ encrypted_password: string&lt;br&gt;&lt;/div&gt;&lt;div&gt;+ full_name: string&lt;/div&gt;&lt;div&gt;+ uid: string&lt;/div&gt;&lt;div&gt;+ avatar_url: string&lt;/div&gt;&lt;div&gt;+ provider: string&lt;/div&gt;&lt;div&gt;+ reset_password_token: string&lt;/div&gt;&lt;div&gt;+ reset_password_sent_at: datetime&lt;br&gt;&lt;/div&gt;&lt;div&gt;+ remeber_created_at: datetime&lt;/div&gt;&lt;div&gt;+ created_at : datetime&lt;/div&gt;&lt;div&gt;+ updated_at : datetime&lt;/div&gt;&lt;div&gt;+ admin: boolean&lt;/div&gt;&lt;div&gt;+ id:integer&lt;/div&gt;&lt;div&gt;&lt;br&gt;&lt;/div&gt;" style="text;strokeColor=none;fillColor=none;align=left;verticalAlign=top;spacingLeft=4;spacingRight=4;overflow=hidden;rotatable=0;points=[[0,0.5],[1,0.5]];portConstraint=eastwest;whiteSpace=wrap;html=1;container=0;" vertex="1" parent="1">
          <mxGeometry x="50" y="56" width="220" height="194" as="geometry" />
        </mxCell>
        <mxCell id="OsrnES0SKi7QVxMVaG5j-8" value="" style="line;strokeWidth=1;fillColor=none;align=left;verticalAlign=middle;spacingTop=-1;spacingLeft=3;spacingRight=3;rotatable=0;labelPosition=right;points=[];portConstraint=eastwest;strokeColor=inherit;container=0;" vertex="1" parent="1">
          <mxGeometry x="50" y="250" width="220" height="8" as="geometry" />
        </mxCell>
        <mxCell id="OsrnES0SKi7QVxMVaG5j-9" value="&lt;div&gt;+ avatar(): Active_storage_blob&lt;/div&gt;&lt;div&gt;&lt;span class=&quot;hljs-type&quot;&gt;+ posts(): Post&lt;/span&gt;&lt;/div&gt;&lt;div&gt;&lt;span class=&quot;hljs-type&quot;&gt;+ &lt;/span&gt;chats_as_buyer(): Chat&lt;/div&gt;&lt;div&gt;+ chats_as_owner() : Chat&lt;/div&gt;&lt;div&gt;+ &lt;span class=&quot;hljs-string&quot;&gt;messages(): Message&lt;/span&gt;&lt;/div&gt;&lt;div&gt;&lt;span class=&quot;hljs-string&quot;&gt;+ &lt;/span&gt;&lt;span class=&quot;hljs-string&quot;&gt;received_notifications(): Notification&lt;/span&gt;&lt;/div&gt;&lt;div&gt;&lt;span class=&quot;hljs-string&quot;&gt;+ &lt;/span&gt;sent_notifications(): Notification&lt;/div&gt;&lt;div&gt;+ chats(): Chat&lt;/div&gt;&lt;div&gt;+&amp;nbsp;self.from_omniauth(): User&lt;/div&gt;&lt;div&gt;+ admin(): User&lt;br&gt; &lt;/div&gt;&lt;div&gt;&lt;br&gt;&lt;/div&gt;&lt;div&gt;&lt;br&gt;&lt;/div&gt;" style="text;strokeColor=none;fillColor=none;align=left;verticalAlign=top;spacingLeft=4;spacingRight=4;overflow=hidden;rotatable=0;points=[[0,0.5],[1,0.5]];portConstraint=eastwest;whiteSpace=wrap;html=1;container=0;" vertex="1" parent="1">
          <mxGeometry x="50" y="260" width="220" height="150" as="geometry" />
        </mxCell>
        <mxCell id="OsrnES0SKi7QVxMVaG5j-34" value="&lt;div&gt;+ title: string&lt;/div&gt;&lt;div&gt;+ description : text&lt;br&gt;&lt;/div&gt;&lt;div&gt;+ city: string&lt;/div&gt;&lt;div&gt;+ square_meter: float&lt;br&gt;&lt;/div&gt;&lt;div&gt;+ price: float&lt;br&gt;&lt;/div&gt;&lt;div&gt;+ provider: string&lt;/div&gt;&lt;div&gt;+ number_rooms: integer&lt;/div&gt;&lt;div&gt;+ user_id: integer&lt;br&gt;&lt;/div&gt;&lt;div&gt;+ created_at : datetime&lt;/div&gt;&lt;div&gt;+ updated_at : datetime&lt;/div&gt;&lt;div&gt;+ id:integer&lt;br&gt;&lt;/div&gt;&lt;div&gt;&lt;br&gt;&lt;/div&gt;&lt;div&gt;&lt;br&gt;&lt;/div&gt;" style="text;strokeColor=none;fillColor=none;align=left;verticalAlign=top;spacingLeft=4;spacingRight=4;overflow=hidden;rotatable=0;points=[[0,0.5],[1,0.5]];portConstraint=eastwest;whiteSpace=wrap;html=1;container=0;" vertex="1" parent="1">
          <mxGeometry x="50" y="536" width="220" height="194" as="geometry" />
        </mxCell>
        <mxCell id="OsrnES0SKi7QVxMVaG5j-35" value="" style="line;strokeWidth=1;fillColor=none;align=left;verticalAlign=middle;spacingTop=-1;spacingLeft=3;spacingRight=3;rotatable=0;labelPosition=right;points=[];portConstraint=eastwest;strokeColor=inherit;container=0;" vertex="1" parent="1">
          <mxGeometry x="50" y="730" width="220" height="8" as="geometry" />
        </mxCell>
        <mxCell id="OsrnES0SKi7QVxMVaG5j-36" value="&lt;div&gt;+ photos(): Active_storage_blob&lt;/div&gt;&lt;div&gt;&lt;span class=&quot;hljs-type&quot;&gt;+ user(): User&lt;br&gt;&lt;/span&gt;&lt;/div&gt;&lt;div&gt;&lt;span class=&quot;hljs-type&quot;&gt;+ &lt;/span&gt;location(): Location&lt;br&gt;&lt;/div&gt;&lt;div&gt;+ chats() : Chat&lt;/div&gt;&lt;div&gt;+ &lt;span class=&quot;hljs-string&quot;&gt;validate_photos_count(): Void&lt;br&gt;&lt;/span&gt;&lt;/div&gt;&lt;div&gt;+messages(): Message&lt;br&gt;&lt;/div&gt;&lt;div&gt;&lt;br&gt;&lt;/div&gt;" style="text;strokeColor=none;fillColor=none;align=left;verticalAlign=top;spacingLeft=4;spacingRight=4;overflow=hidden;rotatable=0;points=[[0,0.5],[1,0.5]];portConstraint=eastwest;whiteSpace=wrap;html=1;container=0;" vertex="1" parent="1">
          <mxGeometry x="50" y="730" width="220" height="90" as="geometry" />
        </mxCell>
        <mxCell id="OsrnES0SKi7QVxMVaG5j-38" value="&lt;div&gt;+ address: string&lt;/div&gt;&lt;div&gt;+ latitude : float&lt;br&gt;&lt;/div&gt;&lt;div&gt;+ longitude: float&lt;br&gt;&lt;/div&gt;&lt;div&gt;+ post_id : integer&lt;br&gt;&lt;/div&gt;&lt;div&gt;+ created_at : datetime&lt;/div&gt;&lt;div&gt;+ updated_at : datetime&lt;/div&gt;&lt;div&gt;+ id:integer&lt;br&gt;&lt;/div&gt;&lt;div&gt;&lt;br&gt;&lt;/div&gt;&lt;div&gt;&lt;br&gt;&lt;/div&gt;" style="text;strokeColor=none;fillColor=none;align=left;verticalAlign=top;spacingLeft=4;spacingRight=4;overflow=hidden;rotatable=0;points=[[0,0.5],[1,0.5]];portConstraint=eastwest;whiteSpace=wrap;html=1;container=0;" vertex="1" parent="1">
          <mxGeometry x="370" y="536" width="240" height="114" as="geometry" />
        </mxCell>
        <mxCell id="OsrnES0SKi7QVxMVaG5j-39" value="" style="line;strokeWidth=1;fillColor=none;align=left;verticalAlign=middle;spacingTop=-1;spacingLeft=3;spacingRight=3;rotatable=0;labelPosition=right;points=[];portConstraint=eastwest;strokeColor=inherit;container=0;" vertex="1" parent="1">
          <mxGeometry x="370" y="650" width="240" height="8" as="geometry" />
        </mxCell>
        <mxCell id="OsrnES0SKi7QVxMVaG5j-40" value="&lt;div&gt;+&amp;nbsp;has_one_attached():Active_storage_blob&lt;/div&gt;&lt;div&gt;&lt;span class=&quot;hljs-type&quot;&gt;+ post(): Post&lt;br&gt;&lt;/span&gt;&lt;/div&gt;&lt;div&gt;&lt;span class=&quot;hljs-type&quot;&gt;+ &lt;/span&gt;generate_map_image(): void&lt;br&gt;&lt;/div&gt;&lt;div&gt;+&amp;nbsp;self.within_radius?&lt;span class=&quot;hljs-string&quot;&gt;(): Boolean&lt;br&gt;&lt;/span&gt;&lt;/div&gt;&lt;div&gt;&lt;br&gt;&lt;/div&gt;&lt;div&gt;&lt;br&gt;&lt;/div&gt;" style="text;strokeColor=none;fillColor=none;align=left;verticalAlign=top;spacingLeft=4;spacingRight=4;overflow=hidden;rotatable=0;points=[[0,0.5],[1,0.5]];portConstraint=eastwest;whiteSpace=wrap;html=1;container=0;" vertex="1" parent="1">
          <mxGeometry x="370" y="658" width="240" height="82" as="geometry" />
        </mxCell>
        <mxCell id="OsrnES0SKi7QVxMVaG5j-48" value="" style="line;strokeWidth=1;fillColor=none;align=left;verticalAlign=middle;spacingTop=-1;spacingLeft=3;spacingRight=3;rotatable=0;labelPosition=right;points=[];portConstraint=eastwest;strokeColor=inherit;container=0;" vertex="1" parent="1">
          <mxGeometry x="370" y="100" width="210" height="8" as="geometry" />
        </mxCell>
        <mxCell id="OsrnES0SKi7QVxMVaG5j-51" value="&lt;div&gt;+ key: String&lt;/div&gt;&lt;div&gt;+ filename: String &lt;/div&gt;&lt;div&gt;+ content_type: String&lt;/div&gt;&lt;div&gt;+ metadata: Text &lt;/div&gt;&lt;div&gt;+ service_name: String&lt;/div&gt;&lt;div&gt;+ byte_size: &lt;span class=&quot;hljs-type&quot;&gt;Bigint&lt;/span&gt; &lt;/div&gt;&lt;div&gt;+ checksum: String &lt;/div&gt;&lt;div&gt;+ created_at: DateTime&lt;/div&gt;&lt;div&gt;+ id:integer&lt;br&gt;&lt;/div&gt;&lt;div&gt;&lt;br&gt;&lt;/div&gt;&lt;div&gt;&lt;br&gt;&lt;/div&gt;" style="text;strokeColor=none;fillColor=none;align=left;verticalAlign=top;spacingLeft=4;spacingRight=4;overflow=hidden;rotatable=0;points=[[0,0.5],[1,0.5]];portConstraint=eastwest;whiteSpace=wrap;html=1;container=0;" vertex="1" parent="1">
          <mxGeometry x="370" y="210" width="200" height="144" as="geometry" />
        </mxCell>
        <mxCell id="OsrnES0SKi7QVxMVaG5j-52" value="" style="line;strokeWidth=1;fillColor=none;align=left;verticalAlign=middle;spacingTop=-1;spacingLeft=3;spacingRight=3;rotatable=0;labelPosition=right;points=[];portConstraint=eastwest;strokeColor=inherit;container=0;" vertex="1" parent="1">
          <mxGeometry x="370" y="354" width="290" height="8" as="geometry" />
        </mxCell>
        <mxCell id="OsrnES0SKi7QVxMVaG5j-53" value="&lt;div&gt;&lt;span class=&quot;hljs-type&quot;&gt;+ &lt;/span&gt;variant_records() :&amp;nbsp; Active_storage_variant_record&lt;/div&gt;&lt;div&gt;+active_records(): Active_record_attachments&lt;br&gt;&lt;/div&gt;&lt;div&gt;&lt;br&gt;&lt;/div&gt;&lt;div&gt;&lt;br&gt;&lt;/div&gt;" style="text;strokeColor=none;fillColor=none;align=left;verticalAlign=top;spacingLeft=4;spacingRight=4;overflow=hidden;rotatable=0;points=[[0,0.5],[1,0.5]];portConstraint=eastwest;whiteSpace=wrap;html=1;container=0;" vertex="1" parent="1">
          <mxGeometry x="371" y="362" width="289" height="48" as="geometry" />
        </mxCell>
        <mxCell id="OsrnES0SKi7QVxMVaG5j-81" value="Chat" style="swimlane;fontStyle=1;align=center;verticalAlign=top;childLayout=stackLayout;horizontal=1;startSize=26;horizontalStack=0;resizeParent=1;resizeParentMax=0;resizeLast=0;collapsible=1;marginBottom=0;whiteSpace=wrap;html=1;" vertex="1" parent="1">
          <mxGeometry x="-260" y="320" width="190" height="252" as="geometry" />
        </mxCell>
        <mxCell id="OsrnES0SKi7QVxMVaG5j-82" value="&lt;div&gt;+ post_id : integer&lt;/div&gt;&lt;div&gt;+ buyer_id : Integer&lt;br&gt;&lt;/div&gt;+ owner_id : Integer&lt;br&gt;&lt;div&gt;+ last_message_at: datatime&lt;br&gt;&lt;div&gt;+ created_at: DateTime&lt;/div&gt;&lt;div&gt;&lt;div&gt;+ created_at : datetime&lt;/div&gt;&lt;div&gt;+ updated_at : datetime&lt;/div&gt;&lt;div&gt;+ id : integer&lt;br&gt;&lt;/div&gt;&lt;/div&gt;&lt;div&gt;&lt;br&gt;&lt;/div&gt;&lt;/div&gt;&lt;div&gt;&lt;br&gt;&lt;/div&gt;" style="text;strokeColor=none;fillColor=none;align=left;verticalAlign=top;spacingLeft=4;spacingRight=4;overflow=hidden;rotatable=0;points=[[0,0.5],[1,0.5]];portConstraint=eastwest;whiteSpace=wrap;html=1;" vertex="1" parent="OsrnES0SKi7QVxMVaG5j-81">
          <mxGeometry y="26" width="190" height="124" as="geometry" />
        </mxCell>
        <mxCell id="OsrnES0SKi7QVxMVaG5j-83" value="" style="line;strokeWidth=1;fillColor=none;align=left;verticalAlign=middle;spacingTop=-1;spacingLeft=3;spacingRight=3;rotatable=0;labelPosition=right;points=[];portConstraint=eastwest;strokeColor=inherit;" vertex="1" parent="OsrnES0SKi7QVxMVaG5j-81">
          <mxGeometry y="150" width="190" height="20" as="geometry" />
        </mxCell>
        <mxCell id="OsrnES0SKi7QVxMVaG5j-84" value="&lt;div&gt;+ post(): Post&lt;/div&gt;&lt;div&gt;+ buyer(): User&lt;/div&gt;&lt;div&gt;+ owner(): User&lt;/div&gt;&lt;div&gt;+ messanges(): Message&lt;/div&gt;&lt;div&gt;+ other_user() User&lt;br&gt;&lt;/div&gt;" style="text;strokeColor=none;fillColor=none;align=left;verticalAlign=top;spacingLeft=4;spacingRight=4;overflow=hidden;rotatable=0;points=[[0,0.5],[1,0.5]];portConstraint=eastwest;whiteSpace=wrap;html=1;" vertex="1" parent="OsrnES0SKi7QVxMVaG5j-81">
          <mxGeometry y="170" width="190" height="82" as="geometry" />
        </mxCell>
        <mxCell id="OsrnES0SKi7QVxMVaG5j-86" value="1" style="endArrow=open;html=1;endSize=12;startArrow=diamondThin;startSize=14;startFill=0;edgeStyle=orthogonalEdgeStyle;align=left;verticalAlign=bottom;rounded=0;exitX=-0.023;exitY=0.4;exitDx=0;exitDy=0;exitPerimeter=0;" edge="1" parent="1" source="OsrnES0SKi7QVxMVaG5j-9" target="OsrnES0SKi7QVxMVaG5j-82">
          <mxGeometry x="-0.849" y="-10" relative="1" as="geometry">
            <mxPoint x="20" y="430" as="sourcePoint" />
            <mxPoint x="25" y="390" as="targetPoint" />
            <Array as="points">
              <mxPoint x="-10" y="320" />
              <mxPoint x="-10" y="403" />
            </Array>
            <mxPoint as="offset" />
          </mxGeometry>
        </mxCell>
        <mxCell id="OsrnES0SKi7QVxMVaG5j-87" value="1" style="endArrow=open;html=1;endSize=12;startArrow=diamondThin;startSize=14;startFill=0;edgeStyle=orthogonalEdgeStyle;align=left;verticalAlign=bottom;rounded=0;exitX=1;exitY=1;exitDx=0;exitDy=0;" edge="1" parent="1" source="OsrnES0SKi7QVxMVaG5j-90" target="OsrnES0SKi7QVxMVaG5j-81">
          <mxGeometry x="-0.8545" y="20" relative="1" as="geometry">
            <mxPoint x="50" y="190" as="sourcePoint" />
            <mxPoint x="-65" y="273" as="targetPoint" />
            <Array as="points">
              <mxPoint x="-165" y="250" />
            </Array>
            <mxPoint as="offset" />
          </mxGeometry>
        </mxCell>
        <mxCell id="OsrnES0SKi7QVxMVaG5j-88" value="0..*" style="text;html=1;align=center;verticalAlign=middle;resizable=0;points=[];autosize=1;strokeColor=none;fillColor=none;container=0;" vertex="1" parent="1">
          <mxGeometry x="-70" y="410" width="40" height="30" as="geometry" />
        </mxCell>
        <mxCell id="OsrnES0SKi7QVxMVaG5j-89" value="0..*" style="text;html=1;align=center;verticalAlign=middle;resizable=0;points=[];autosize=1;strokeColor=none;fillColor=none;container=0;" vertex="1" parent="1">
          <mxGeometry x="-160" y="290" width="40" height="30" as="geometry" />
        </mxCell>
        <mxCell id="OsrnES0SKi7QVxMVaG5j-90" value="Buyer" style="text;strokeColor=none;align=center;fillColor=none;html=1;verticalAlign=middle;whiteSpace=wrap;rounded=0;" vertex="1" parent="1">
          <mxGeometry x="-20" y="220" width="60" height="30" as="geometry" />
        </mxCell>
        <mxCell id="OsrnES0SKi7QVxMVaG5j-91" value="Owner" style="text;strokeColor=none;align=center;fillColor=none;html=1;verticalAlign=middle;whiteSpace=wrap;rounded=0;" vertex="1" parent="1">
          <mxGeometry x="-10" y="320" width="60" height="30" as="geometry" />
        </mxCell>
        <mxCell id="OsrnES0SKi7QVxMVaG5j-93" value="1" style="endArrow=open;html=1;endSize=12;startArrow=diamondThin;startSize=14;startFill=0;edgeStyle=orthogonalEdgeStyle;align=left;verticalAlign=bottom;rounded=0;" edge="1" parent="1">
          <mxGeometry x="-0.6667" y="-5" relative="1" as="geometry">
            <mxPoint x="50" y="535" as="sourcePoint" />
            <mxPoint x="-70" y="535" as="targetPoint" />
            <mxPoint as="offset" />
          </mxGeometry>
        </mxCell>
        <mxCell id="OsrnES0SKi7QVxMVaG5j-96" value="0..*" style="text;html=1;align=center;verticalAlign=middle;resizable=0;points=[];autosize=1;strokeColor=none;fillColor=none;container=0;" vertex="1" parent="1">
          <mxGeometry x="-70" y="500" width="40" height="30" as="geometry" />
        </mxCell>
        <mxCell id="OsrnES0SKi7QVxMVaG5j-97" value="" style="group" vertex="1" connectable="0" parent="1">
          <mxGeometry x="370" y="23" width="210" height="117" as="geometry" />
        </mxCell>
        <mxCell id="OsrnES0SKi7QVxMVaG5j-46" value="Active_storage_variant_records" style="swimlane;fontStyle=1;align=center;verticalAlign=top;childLayout=stackLayout;horizontal=1;startSize=26;horizontalStack=0;resizeParent=1;resizeParentMax=0;resizeLast=0;collapsible=1;marginBottom=0;whiteSpace=wrap;html=1;container=0;" vertex="1" parent="OsrnES0SKi7QVxMVaG5j-97">
          <mxGeometry width="210" height="110" as="geometry">
            <mxRectangle x="260" y="80" width="100" height="30" as="alternateBounds" />
          </mxGeometry>
        </mxCell>
        <mxCell id="OsrnES0SKi7QVxMVaG5j-47" value="&lt;div&gt;+ blob_id: Integer&lt;br&gt;&lt;/div&gt;&lt;div&gt;+ variation_digest: string &lt;/div&gt;+id: integer&lt;br&gt;&lt;div&gt;&lt;br&gt;&lt;/div&gt;&lt;div&gt;&lt;br&gt;&lt;/div&gt;&lt;div&gt;&lt;br&gt;&lt;/div&gt;" style="text;strokeColor=none;fillColor=none;align=left;verticalAlign=top;spacingLeft=4;spacingRight=4;overflow=hidden;rotatable=0;points=[[0,0.5],[1,0.5]];portConstraint=eastwest;whiteSpace=wrap;html=1;container=0;" vertex="1" parent="OsrnES0SKi7QVxMVaG5j-97">
          <mxGeometry y="33" width="210" height="44" as="geometry" />
        </mxCell>
        <mxCell id="OsrnES0SKi7QVxMVaG5j-49" value="&lt;div&gt;&lt;span class=&quot;hljs-type&quot;&gt;+ &lt;/span&gt;blob() :&amp;nbsp; Active_storage_blobs&lt;/div&gt;&lt;div&gt;&lt;br&gt;&lt;/div&gt;&lt;div&gt;&lt;br&gt;&lt;/div&gt;" style="text;strokeColor=none;fillColor=none;align=left;verticalAlign=top;spacingLeft=4;spacingRight=4;overflow=hidden;rotatable=0;points=[[0,0.5],[1,0.5]];portConstraint=eastwest;whiteSpace=wrap;html=1;container=0;" vertex="1" parent="OsrnES0SKi7QVxMVaG5j-97">
          <mxGeometry y="85" width="210" height="32" as="geometry" />
        </mxCell>
        <mxCell id="OsrnES0SKi7QVxMVaG5j-104" value="Message" style="swimlane;fontStyle=1;align=center;verticalAlign=top;childLayout=stackLayout;horizontal=1;startSize=26;horizontalStack=0;resizeParent=1;resizeParentMax=0;resizeLast=0;collapsible=1;marginBottom=0;whiteSpace=wrap;html=1;" vertex="1" parent="1">
          <mxGeometry x="-260" y="640" width="190" height="250" as="geometry" />
        </mxCell>
        <mxCell id="OsrnES0SKi7QVxMVaG5j-105" value="&lt;div&gt;+ content : text&lt;/div&gt;&lt;div&gt;+ sender_id : Integer&lt;/div&gt;&lt;div&gt;+ chat_id : integer&lt;br&gt;&lt;/div&gt;&lt;div&gt;+ post_id : integer&lt;/div&gt;&lt;div&gt;&lt;div&gt;+ created_at : datetime&lt;/div&gt;&lt;div&gt;+ updated_at : datetime&lt;/div&gt;&lt;div&gt;+ id: integer&lt;br&gt;&lt;/div&gt;&lt;/div&gt;&lt;div&gt;&lt;br&gt;&lt;/div&gt;" style="text;strokeColor=none;fillColor=none;align=left;verticalAlign=top;spacingLeft=4;spacingRight=4;overflow=hidden;rotatable=0;points=[[0,0.5],[1,0.5]];portConstraint=eastwest;whiteSpace=wrap;html=1;" vertex="1" parent="OsrnES0SKi7QVxMVaG5j-104">
          <mxGeometry y="26" width="190" height="114" as="geometry" />
        </mxCell>
        <mxCell id="OsrnES0SKi7QVxMVaG5j-106" value="" style="line;strokeWidth=1;fillColor=none;align=left;verticalAlign=middle;spacingTop=-1;spacingLeft=3;spacingRight=3;rotatable=0;labelPosition=right;points=[];portConstraint=eastwest;strokeColor=inherit;" vertex="1" parent="OsrnES0SKi7QVxMVaG5j-104">
          <mxGeometry y="140" width="190" height="8" as="geometry" />
        </mxCell>
        <mxCell id="OsrnES0SKi7QVxMVaG5j-107" value="&lt;div&gt;+ post(): Post&lt;/div&gt;&lt;div&gt;+ chat(): Chat&lt;/div&gt;&lt;div&gt;+ sender(): User&lt;/div&gt;&lt;div&gt;+ notification(): Notification&lt;br&gt;&lt;/div&gt;&lt;div&gt;+ create_notification(): void&lt;br&gt;&lt;/div&gt;&lt;div&gt;+ update_chat_timestamp() void&lt;br&gt;&lt;/div&gt;" style="text;strokeColor=none;fillColor=none;align=left;verticalAlign=top;spacingLeft=4;spacingRight=4;overflow=hidden;rotatable=0;points=[[0,0.5],[1,0.5]];portConstraint=eastwest;whiteSpace=wrap;html=1;" vertex="1" parent="OsrnES0SKi7QVxMVaG5j-104">
          <mxGeometry y="148" width="190" height="102" as="geometry" />
        </mxCell>
        <mxCell id="OsrnES0SKi7QVxMVaG5j-108" value="1" style="endArrow=open;html=1;endSize=12;startArrow=diamondThin;startSize=14;startFill=0;edgeStyle=orthogonalEdgeStyle;align=left;verticalAlign=bottom;rounded=0;" edge="1" parent="1">
          <mxGeometry x="-0.4493" y="10" relative="1" as="geometry">
            <mxPoint x="-170" y="571" as="sourcePoint" />
            <mxPoint x="-170" y="640" as="targetPoint" />
            <Array as="points">
              <mxPoint x="-170" y="581" />
              <mxPoint x="-170" y="581" />
            </Array>
            <mxPoint as="offset" />
          </mxGeometry>
        </mxCell>
        <mxCell id="OsrnES0SKi7QVxMVaG5j-109" value="1..*" style="edgeLabel;resizable=0;html=1;align=right;verticalAlign=top;container=0;" connectable="0" vertex="1" parent="1">
          <mxGeometry x="-139.9955243513116" y="609.9971916180573" as="geometry" />
        </mxCell>
        <mxCell id="OsrnES0SKi7QVxMVaG5j-110" value="Notification" style="swimlane;fontStyle=1;align=center;verticalAlign=top;childLayout=stackLayout;horizontal=1;startSize=26;horizontalStack=0;resizeParent=1;resizeParentMax=0;resizeLast=0;collapsible=1;marginBottom=0;whiteSpace=wrap;html=1;" vertex="1" parent="1">
          <mxGeometry x="-540" y="362" width="190" height="230" as="geometry" />
        </mxCell>
        <mxCell id="OsrnES0SKi7QVxMVaG5j-111" value="&lt;div&gt;+ recipient_id : Integer&lt;br&gt;&lt;/div&gt;&lt;div&gt;+ sender_id : Integer&lt;/div&gt;&lt;div&gt;+ message_id : Integer&lt;br&gt;&lt;/div&gt;&lt;div&gt;+ post_id : integer&lt;/div&gt;&lt;div&gt;&lt;div&gt;+ read: boolean&lt;br&gt;&lt;/div&gt;&lt;div&gt;&lt;div&gt;+ created_at : datetime&lt;/div&gt;&lt;div&gt;+ updated_at : datetime&lt;/div&gt;&lt;/div&gt;&lt;div&gt;+ id: integer&lt;br&gt;&lt;/div&gt;&lt;/div&gt;&lt;div&gt;&lt;br&gt;&lt;/div&gt;" style="text;strokeColor=none;fillColor=none;align=left;verticalAlign=top;spacingLeft=4;spacingRight=4;overflow=hidden;rotatable=0;points=[[0,0.5],[1,0.5]];portConstraint=eastwest;whiteSpace=wrap;html=1;" vertex="1" parent="OsrnES0SKi7QVxMVaG5j-110">
          <mxGeometry y="26" width="190" height="124" as="geometry" />
        </mxCell>
        <mxCell id="OsrnES0SKi7QVxMVaG5j-112" value="" style="line;strokeWidth=1;fillColor=none;align=left;verticalAlign=middle;spacingTop=-1;spacingLeft=3;spacingRight=3;rotatable=0;labelPosition=right;points=[];portConstraint=eastwest;strokeColor=inherit;" vertex="1" parent="OsrnES0SKi7QVxMVaG5j-110">
          <mxGeometry y="150" width="190" height="8" as="geometry" />
        </mxCell>
        <mxCell id="OsrnES0SKi7QVxMVaG5j-113" value="&lt;div&gt;+ recipient(): User&lt;br&gt;&lt;/div&gt;&lt;div&gt;+ sender () : User&lt;br&gt;&lt;/div&gt;&lt;div&gt;+ message() Message&lt;br&gt;&lt;/div&gt;&lt;div&gt;+ mark_as_read() void&lt;br&gt;&lt;/div&gt;" style="text;strokeColor=none;fillColor=none;align=left;verticalAlign=top;spacingLeft=4;spacingRight=4;overflow=hidden;rotatable=0;points=[[0,0.5],[1,0.5]];portConstraint=eastwest;whiteSpace=wrap;html=1;" vertex="1" parent="OsrnES0SKi7QVxMVaG5j-110">
          <mxGeometry y="158" width="190" height="72" as="geometry" />
        </mxCell>
        <mxCell id="OsrnES0SKi7QVxMVaG5j-114" value="1" style="endArrow=open;html=1;endSize=12;startArrow=diamondThin;startSize=14;startFill=0;edgeStyle=orthogonalEdgeStyle;align=left;verticalAlign=bottom;rounded=0;entryX=-0.011;entryY=0.561;entryDx=0;entryDy=0;entryPerimeter=0;" edge="1" parent="1" target="OsrnES0SKi7QVxMVaG5j-105">
          <mxGeometry x="-0.9491" y="20" relative="1" as="geometry">
            <mxPoint x="40" y="200" as="sourcePoint" />
            <mxPoint x="-280" y="260" as="targetPoint" />
            <Array as="points">
              <mxPoint x="-60" y="200" />
              <mxPoint x="-300" y="200" />
              <mxPoint x="-300" y="730" />
            </Array>
            <mxPoint as="offset" />
          </mxGeometry>
        </mxCell>
        <mxCell id="OsrnES0SKi7QVxMVaG5j-115" value="0..*" style="text;html=1;align=center;verticalAlign=middle;resizable=0;points=[];autosize=1;strokeColor=none;fillColor=none;container=0;" vertex="1" parent="1">
          <mxGeometry x="-310" y="700" width="40" height="30" as="geometry" />
        </mxCell>
        <mxCell id="OsrnES0SKi7QVxMVaG5j-116" value="Sender" style="text;strokeColor=none;align=center;fillColor=none;html=1;verticalAlign=middle;whiteSpace=wrap;rounded=0;" vertex="1" parent="1">
          <mxGeometry x="-40" y="180" width="60" height="30" as="geometry" />
        </mxCell>
        <mxCell id="OsrnES0SKi7QVxMVaG5j-117" value="1" style="endArrow=open;html=1;endSize=12;startArrow=diamondThin;startSize=14;startFill=0;edgeStyle=orthogonalEdgeStyle;align=left;verticalAlign=bottom;rounded=0;" edge="1" parent="1">
          <mxGeometry x="-0.6667" y="-5" relative="1" as="geometry">
            <mxPoint x="50" y="700" as="sourcePoint" />
            <mxPoint x="-70" y="700" as="targetPoint" />
            <mxPoint as="offset" />
          </mxGeometry>
        </mxCell>
        <mxCell id="OsrnES0SKi7QVxMVaG5j-118" value="0..*" style="text;html=1;align=center;verticalAlign=middle;resizable=0;points=[];autosize=1;strokeColor=none;fillColor=none;container=0;" vertex="1" parent="1">
          <mxGeometry x="-70" y="670" width="40" height="30" as="geometry" />
        </mxCell>
        <mxCell id="OsrnES0SKi7QVxMVaG5j-119" value="1" style="endArrow=open;html=1;endSize=12;startArrow=diamondThin;startSize=14;startFill=0;edgeStyle=orthogonalEdgeStyle;align=left;verticalAlign=bottom;rounded=0;exitX=-0.023;exitY=0.4;exitDx=0;exitDy=0;exitPerimeter=0;" edge="1" parent="1">
          <mxGeometry x="-0.9494" relative="1" as="geometry">
            <mxPoint x="50" y="70" as="sourcePoint" />
            <mxPoint x="-450" y="360" as="targetPoint" />
            <Array as="points">
              <mxPoint x="-450" y="70" />
            </Array>
            <mxPoint as="offset" />
          </mxGeometry>
        </mxCell>
        <mxCell id="OsrnES0SKi7QVxMVaG5j-120" value="Sender" style="text;strokeColor=none;align=center;fillColor=none;html=1;verticalAlign=middle;whiteSpace=wrap;rounded=0;" vertex="1" parent="1">
          <mxGeometry x="-30" y="50" width="60" height="30" as="geometry" />
        </mxCell>
        <mxCell id="OsrnES0SKi7QVxMVaG5j-121" value="1" style="edgeLabel;resizable=0;html=1;align=left;verticalAlign=top;container=0;" connectable="0" vertex="1" parent="1">
          <mxGeometry x="-445" y="330" as="geometry" />
        </mxCell>
        <mxCell id="OsrnES0SKi7QVxMVaG5j-122" value="1" style="endArrow=open;html=1;endSize=12;startArrow=diamondThin;startSize=14;startFill=0;edgeStyle=orthogonalEdgeStyle;align=left;verticalAlign=bottom;rounded=0;exitX=-0.023;exitY=0.4;exitDx=0;exitDy=0;exitPerimeter=0;" edge="1" parent="1">
          <mxGeometry x="-0.9494" relative="1" as="geometry">
            <mxPoint x="50" y="100" as="sourcePoint" />
            <mxPoint x="-400" y="360" as="targetPoint" />
            <Array as="points">
              <mxPoint x="-400" y="100" />
            </Array>
            <mxPoint as="offset" />
          </mxGeometry>
        </mxCell>
        <mxCell id="OsrnES0SKi7QVxMVaG5j-124" value="Recipient" style="text;strokeColor=none;align=center;fillColor=none;html=1;verticalAlign=middle;whiteSpace=wrap;rounded=0;" vertex="1" parent="1">
          <mxGeometry x="-30" y="78" width="60" height="30" as="geometry" />
        </mxCell>
        <mxCell id="OsrnES0SKi7QVxMVaG5j-127" value="1" style="edgeLabel;resizable=0;html=1;align=left;verticalAlign=top;container=0;" connectable="0" vertex="1" parent="1">
          <mxGeometry x="-390" y="330" as="geometry" />
        </mxCell>
        <mxCell id="OsrnES0SKi7QVxMVaG5j-128" value="1" style="endArrow=open;html=1;endSize=12;startArrow=diamondThin;startSize=14;startFill=0;edgeStyle=orthogonalEdgeStyle;align=left;verticalAlign=bottom;rounded=0;" edge="1" parent="1">
          <mxGeometry x="-0.8501" y="-10" relative="1" as="geometry">
            <mxPoint x="-260" y="800" as="sourcePoint" />
            <mxPoint x="-460" y="600" as="targetPoint" />
            <mxPoint as="offset" />
          </mxGeometry>
        </mxCell>
        <mxCell id="OsrnES0SKi7QVxMVaG5j-129" value="1" style="edgeLabel;resizable=0;html=1;align=left;verticalAlign=top;container=0;" connectable="0" vertex="1" parent="1">
          <mxGeometry x="-445" y="600" as="geometry" />
        </mxCell>
      </root>
    </mxGraphModel>
  </diagram>
</mxfile>
